<?xml version="1.0" encoding="utf-8"?>
<!-- Generator: Adobe Illustrator 21.1.0, SVG Export Plug-In . SVG Version: 6.00 Build 0)  -->
<svg version="1.1" id="图层_1" xmlns="http://www.w3.org/2000/svg" xmlns:xlink="http://www.w3.org/1999/xlink" x="0px" y="0px"
	 viewBox="0 0 210 60" style="enable-background:new 0 0 210 60;" xml:space="preserve">
<style type="text/css">
	.st0{fill:#FFFFFF;}
	.st1{enable-background:new    ;}
	.st2{fill:#419BEB;}
	.st3{fill:#FFDC74;}
	.st4{fill:#6EB422;}
	.st5{fill:none;stroke:#F87F79;stroke-width:2.9116;stroke-linecap:round;stroke-linejoin:round;}
</style>
<circle id="椭圆_1" class="st0" cx="47.1" cy="28" r="17.1"/>
<g class="st1">
	<path class="st0" d="M81.5,21.3l-2.9,16.3h-2l1.2-6.3h-1.3c-0.5,2.3-1,4.4-1.5,6.3h-2c0.6-2,1.1-4.1,1.6-6.4
		c0.8-3.9,1.4-7.6,2-11.1h3.7C81.3,20.2,81.7,20.4,81.5,21.3z M78.7,26.5h-1.4c-0.2,1.1-0.4,2.2-0.6,3.2h1.3L78.7,26.5z M79.1,21.9
		h-1l-0.5,3H79l0.5-2.7C79.5,21.9,79.4,21.9,79.1,21.9z M87.2,35.2h-6.8l-0.3-1.6h7.4L87.2,35.2z M92.4,28.5l-0.5,1.8
		c-0.9-0.2-1.8-0.6-2.5-1.1L89,31.3h1c0.7,0,1.2,0.1,1,1c-0.2,1.5-0.6,3.6-0.9,5.4h-5.3L84.3,36h3.8c0.2-0.9,0.4-1.9,0.6-2.8
		c0.1-0.3,0-0.4-0.3-0.4h-6.8l0.6-3.3c-0.6,0.3-1.2,0.5-1.9,0.6l0.4-2c1-0.2,2.6-1,3.3-1.8h-3l0.3-1.6h3.7c0.2-0.3,0.3-0.6,0.4-0.9
		h-3.9l0.3-1.6h1.4L82.8,20h2.1c0.1,0.8,0.3,1.5,0.5,2.4H86c0.2-0.7,0.4-1.8,0.4-2.7h2.1c-0.1,1.1-0.2,1.9-0.4,2.7h0.8
		c0.4-0.7,0.7-1.6,0.9-2.4h2.1c-0.3,0.8-0.6,1.6-1,2.4h1.5L92,24h-4.3c-0.1,0.3-0.2,0.6-0.4,0.9h5.3l-0.4,1.6h-3
		C89.7,27.4,91.4,28.2,92.4,28.5z M86.9,31.3l0.3-1.5c0.1-0.3,0-0.4-0.3-0.4h-3.7l0.9,0.6L84,31.3H86.9z M86.4,26.5
		c-0.4,0.5-0.9,1-1.4,1.5h3.1c-0.4-0.4-0.7-0.9-0.9-1.5H86.4z"/>
	<path class="st0" d="M97.7,33.4c0.8-0.6,1.7-1.4,2.6-2.1L99.9,34c-1.4,1.2-3.3,2.4-5.1,3.6l2-10.9h-2l0.3-1.8h4.2L97.7,33.4z
		 M97.7,23.8L97,19.6H99l0.8,4.2H97.7z M111.5,21.5c-0.8,4.6-1.7,9.7-2.5,14.3h2.4l-0.7,1.9h-4.3c0.6-3.5,1.1-6.5,1.6-9.1h-3.2
		l-1.6,9.1h-2.2l1.6-9.1h-2.7l0.3-1.7h2.7l0.7-4.3l1.9,1.4l-0.5,2.8h3.2c0.3-1.6,0.5-3.1,0.8-4.3c0.1-0.5-0.1-0.6-0.6-0.6h-7.3
		l-0.4-1.8h9.4C111.5,20.1,111.7,20.5,111.5,21.5z"/>
	<path class="st0" d="M152.2,35.3c-3.2,0.9-6.5,1.6-9.7,2.3l0.2-1.9c0.4-0.1,0.8-0.2,1.3-0.3l2.1-15.1h5.7c0.9,0,1.1,0.3,1,1.2
		l-1.7,12.2l1.2-0.4L152.2,35.3z M146.1,34.9c0.9-0.2,1.9-0.4,2.9-0.7l0.4-2.9h-2.8L146.1,34.9z M150.1,26.7h-2.8l-0.4,3.1h2.8
		L150.1,26.7z M147.9,22l-0.4,3h2.8l0.4-2.8c0-0.1,0-0.2-0.1-0.2H147.9z M161.3,24.4l-1.7,13.2h-3.4l-0.5-1.7h2l1.4-10.9
		c0-0.2,0-0.3-0.3-0.3h-1.6c-0.7,4.9-1.5,8.8-3.6,12.8h-2.4c2.5-4.8,3.1-7.4,3.8-12.8h-1.8l-0.5-1.7h2.5c0.1-1.2,0.3-2.4,0.3-3.4
		h2.1c-0.1,1-0.2,2.2-0.3,3.4h2.8C161.1,23.1,161.5,23.3,161.3,24.4z"/>
	<path class="st0" d="M180.6,32.2h-7.7l-0.7,5.5h-4.6l-0.5-2h2.9l0.5-3.5h-7.6l0.3-2h7.6l0.4-2.6h-6.7l0.3-2h6.6l0.4-2.8
		c-2.2,0.2-4.6,0.4-6.8,0.5l0.3-2c5.3-0.2,10.6-0.8,15.3-1.6l-0.3,2c-1.5,0.2-3.7,0.5-6.1,0.8l-0.4,3.1h6.5l-0.3,2h-6.5l-0.3,2.6
		h7.7L180.6,32.2z"/>
</g>
<g id="logo">
	<path id="圆角矩形_3" class="st2" d="M46.4,22.5c0.6,0.6,0.6,1.7,0,2.3L37.2,34c-0.6,0.6-1.7,0.6-2.3,0c-0.6-0.6-0.6-1.7,0-2.3
		c0,0,0,0,0,0l9.2-9.2C44.7,21.9,45.8,21.9,46.4,22.5C46.4,22.5,46.4,22.5,46.4,22.5z"/>
	<path id="圆角矩形_3_拷贝" class="st3" d="M55.6,34c-0.6,0.6-1.7,0.6-2.3,0c0,0,0,0,0,0l-9.2-9.2c-0.6-0.6-0.6-1.7,0-2.3
		c0.6-0.6,1.7-0.6,2.3,0l9.2,9.2C56.2,32.3,56.2,33.4,55.6,34z"/>
	<path id="圆角矩形_3_拷贝_2" class="st4" d="M43.3,33.9c-0.6-0.6-0.6-1.7,0-2.3l9.2-9.2c0.6-0.6,1.7-0.6,2.3,0
		c0.6,0.6,0.6,1.7,0,2.3l0,0l-9.2,9.2C44.9,34.6,43.9,34.6,43.3,33.9C43.3,33.9,43.3,33.9,43.3,33.9z"/>
	<path id="椭圆_2" class="st5" d="M53.6,23.4c0.9,0,1.8,0.3,2.5,0.7c2.4,1.4,3.1,4.4,1.6,6.7c-0.7,1.1-1.9,1.9-3.3,2.2"/>
</g>
<g class="st1">
	<path class="st0" d="M128,22.2l-2.6,15.1h-2.7l1.2-6.7h-6.2l-1.2,6.7h-2.7l2.6-15.1h2.7l-1.1,6.3h6.2l1.1-6.3H128z"/>
	<path class="st0" d="M141.3,24.1c0,0.5-0.1,1.2-0.3,2.3l-0.4,2.3c-0.4,2.3-1.5,2.7-3.7,2.7l2.7,5.9h-2.7l-2.8-6.4l0.3-1.4h2
		c1,0,1.5-0.2,1.7-1.3l0.3-1.8c0.1-0.5,0.2-1,0.2-1.3c0-0.6-0.4-0.7-1.5-0.7h-3.2l-2.3,13h-2.7l2.6-15.1h6.7
		C140.4,22.2,141.3,22.6,141.3,24.1z"/>
</g>
</svg>
