<svg t="1584444985045" class="icon" viewBox="0 0 1024 1024" version="1.1" xmlns="http://www.w3.org/2000/svg" p-id="1178" width="200" height="200"><path d="M873.192727 177.105455v504.552727h-721.454545V177.105455zM93.090909 681.658182a59.345455 59.345455 0 0 0 57.716364 60.741818h721.454545a55.854545 55.854545 0 0 0 40.727273-17.92 61.672727 61.672727 0 0 0 17.92-42.821818V177.105455A59.345455 59.345455 0 0 0 873.192727 116.363636h-721.454545a56.087273 56.087273 0 0 0-40.727273 17.687273A62.370909 62.370909 0 0 0 93.090909 177.105455zM781.032727 884.363636a29.556364 29.556364 0 0 0 28.858182-30.254545v-1.396364a31.883636 31.883636 0 0 0-8.378182-21.643636 28.858182 28.858182 0 0 0-20.48-8.843636H242.967273a29.789091 29.789091 0 0 0-28.858182 30.487272v1.396364a29.556364 29.556364 0 0 0 28.858182 30.254545z m-298.589091-61.44h57.716364V742.4h-56.32z m-213.410909-323.956363l144.523637-141.963637 24.669091 27.694546-144.523637 141.963636z m282.996364 0l144.290909-141.963637L721.454545 384.698182l-144.290909 141.963636z m-30.254546 3.723636l-79.592727-93.090909a43.985455 43.985455 0 1 1 29.323637-41.658182 46.545455 46.545455 0 0 1-2.792728 16.058182l80.290909 94.487273a39.563636 39.563636 0 0 1 31.883637 4.189091 43.752727 43.752727 0 0 1 20.712727 37.701818 41.658182 41.658182 0 1 1-83.083636 0 46.545455 46.545455 0 0 1 3.258181-17.687273z m-281.832727 9.309091a41.658182 41.658182 0 1 1 41.658182 43.752727A42.589091 42.589091 0 0 1 239.941818 512z m439.621818-154.996364a41.658182 41.658182 0 1 1 41.890909 43.52 42.589091 42.589091 0 0 1-41.890909-43.52z" p-id="1179"></path></svg>
